<?xml version="1.0" standalone="no"?>
<!DOCTYPE svg PUBLIC "-//W3C//DTD SVG 20010904//EN"
 "http://www.w3.org/TR/2001/REC-SVG-20010904/DTD/svg10.dtd">
<svg version="1.0" xmlns="http://www.w3.org/2000/svg"
 width="180.000000pt" height="180.000000pt" viewBox="0 0 180.000000 180.000000"
 preserveAspectRatio="xMidYMid meet">

<g transform="translate(0.000000,180.000000) scale(0.100000,-0.100000)"
fill="#000000" stroke="none">
<path d="M0 900 l0 -900 900 0 900 0 0 900 0 900 -900 0 -900 0 0 -900z m751
383 c0 -60 0 -161 -1 -225 l-1 -118 56 0 c46 0 60 4 80 25 21 21 25 33 25 88
0 85 -16 106 -90 117 -50 7 -51 8 -16 9 61 2 86 31 86 101 0 64 -12 87 -55 99
l-30 9 28 1 c39 1 91 -23 111 -50 18 -27 21 -81 5 -111 -6 -11 -28 -28 -50
-37 l-40 -18 29 -6 c72 -14 111 -96 82 -167 -22 -53 -58 -64 -210 -67 -100 -2
-128 0 -109 8 l27 10 4 197 c2 108 2 203 0 210 -3 8 -14 18 -26 22 -15 6 -6 9
37 9 l57 1 1 -107z m337 -405 c-9 -202 -5 -243 20 -257 12 -8 -5 -10 -63 -10
-44 0 -73 3 -65 6 36 13 40 33 40 229 0 173 -2 194 -17 203 -14 8 -5 10 37 11
l55 0 -7 -182z m191 135 c-1 -46 -1 -47 -10 -16 -12 41 -22 47 -94 54 -60 6
-59 6 23 7 l82 2 -1 -47z m-63 -175 c0 -68 -1 -70 -13 -40 -7 18 -20 32 -28
32 -21 0 -19 18 4 25 10 3 22 17 25 30 4 14 8 25 9 25 2 0 3 -32 3 -72z m-466
2 c-13 -8 -8 -24 32 -102 26 -51 54 -102 61 -112 14 -19 16 -17 40 30 14 27
26 45 27 41 0 -4 -11 -30 -25 -57 -21 -41 -25 -64 -25 -134 0 -93 5 -116 26
-116 8 0 14 -4 14 -8 0 -4 -34 -8 -75 -7 -41 0 -75 2 -75 5 0 3 9 11 20 18 18
11 20 23 20 103 l0 91 -61 116 c-34 64 -69 123 -77 130 -13 10 -5 12 49 12 45
0 59 -3 49 -10z m246 1 c-10 -4 -25 -18 -33 -32 -12 -21 -13 -22 -8 -2 4 15 0
25 -12 32 -14 8 -9 10 27 10 30 0 39 -3 26 -8z m-73 -116 c-3 -9 -8 -14 -10
-11 -3 3 -2 9 2 15 9 16 15 13 8 -4z"/>
</g>
</svg>
